P3
2 2
255
58 89 62  58 230 180  
220 186 123  208 123 182  